<svg xmlns="http://www.w3.org/2000/svg" viewBox="0 0 300 100" role="img" aria-labelledby="title desc">
<title id="title">Nigel's Kitchen Table</title>
<desc id="desc">Compact charcoal and copper wordmark with a botanical sprig.</desc>
<g fill="none" stroke="#66785f" stroke-width="1.8" stroke-linecap="round" stroke-linejoin="round">
  <path d="M118 16c10-7 22-8 32-3 9 4 17 4 25-1"/>
  <path d="M129 14c-3-5-7-7-11-7M140 11c-2-5-5-7-9-8M156 12c3-5 7-7 11-8M169 14c4-4 8-5 12-5"/>
</g>
<text x="150" y="57" text-anchor="middle" fill="#2E2E2B" font-family="Georgia, 'Times New Roman', serif" font-size="38" letter-spacing="7.5">NIGEL'S</text>
<path d="M38 78h55M207 78h55" stroke="#9A6B46" stroke-width="1.4"/>
<circle cx="34" cy="78" r="1.6" fill="#9A6B46"/>
<circle cx="266" cy="78" r="1.6" fill="#9A6B46"/>
<text x="150" y="84" text-anchor="middle" fill="#2E2E2B" font-family="Georgia, 'Times New Roman', serif" font-size="12" letter-spacing="3.9">KITCHEN TABLE</text>
</svg>
